<?xml version="1.0" encoding="utf-8"?>
<!-- Generator: Adobe Illustrator 24.0.0, SVG Export Plug-In . SVG Version: 6.00 Build 0)  -->
<svg version="1.1" id="Layer_1" xmlns="http://www.w3.org/2000/svg" xmlns:xlink="http://www.w3.org/1999/xlink" x="0px" y="0px"
	 viewBox="0 0 750 568" style="enable-background:new 0 0 750 568;" xml:space="preserve">
<style type="text/css">
	.st0{fill:none;stroke:#0E879C;stroke-width:6;}
	.st1{fill:none;stroke:#D9E12B;stroke-width:3.2;}
	.st2{fill:none;stroke:#73C000;stroke-width:2.85;}
	.st3{fill:none;stroke:#7ABFE6;stroke-width:2.85;}
	.st4{fill:none;stroke:#E57200;stroke-width:2.85;}
	.st5{fill:none;stroke:#73C000;stroke-width:2.5;}
	.st6{fill:none;stroke:#7ABFE6;stroke-width:2.5;}
	.st7{fill:none;stroke:#D9E12B;stroke-width:2.5;}
	.st8{fill:none;stroke:#0E879C;stroke-width:2.15;}
	.st9{fill:none;stroke:#7ABFE6;stroke-width:2.15;}
	.st10{fill:none;stroke:#DFA915;stroke-width:2.15;}
	.st11{fill:none;stroke:#2C4F6B;stroke-width:2.15;}
	.st12{fill:none;stroke:#D9E12B;stroke-width:2.15;}
	.st13{fill:none;stroke:#A6D015;stroke-width:2.15;}
	.st14{fill:none;stroke:#43AA8B;stroke-width:2.15;}
	.st15{fill:none;stroke:#E6CE3A;stroke-width:1.8;}
	.st16{fill:none;stroke:#7ABFE6;stroke-width:1.8;}
	.st17{fill:none;stroke:#0E879C;stroke-width:1.8;}
	.st18{fill:none;stroke:#797C4E;stroke-width:1.8;}
	.st19{fill:none;stroke:#E57200;stroke-width:1.8;}
	.st20{fill:none;stroke:#73C000;stroke-width:1.8;}
	.st21{fill:none;stroke:#D9E12B;stroke-width:1.8;}
	.st22{fill:none;stroke:#60999A;stroke-width:1.8;}
	.st23{fill:none;stroke:#43AA8B;stroke-width:1.8;}
	.st24{fill:#0E879C;fill-opacity:0.8;stroke:#000000;stroke-opacity:0.8;}
	.st25{fill:#D9E12B;fill-opacity:0.8;stroke:#000000;stroke-opacity:0.8;}
	.st26{fill:#73C000;fill-opacity:0.8;stroke:#000000;stroke-opacity:0.8;}
	.st27{fill:#7ABFE6;fill-opacity:0.8;stroke:#000000;stroke-opacity:0.8;}
	.st28{fill:#E57200;fill-opacity:0.8;stroke:#000000;stroke-opacity:0.8;}
	.st29{fill:#2C4F6B;fill-opacity:0.8;stroke:#000000;stroke-opacity:0.8;}
	.st30{fill:#43AA8B;fill-opacity:0.8;stroke:#000000;stroke-opacity:0.8;}
	.st31{fill:#E6CE3A;fill-opacity:0.8;stroke:#000000;stroke-opacity:0.8;}
	.st32{fill:#60999A;fill-opacity:0.8;stroke:#000000;stroke-opacity:0.8;}
	.st33{font-family:'AvenirNext-Regular';}
	.st34{font-size:33px;}
	.st35{font-size:51px;}
	.st36{font-size:24px;}
	.st37{font-size:39px;}
	.st38{font-size:45px;}
	.st39{font-size:44px;}
	.st40{font-size:29px;}
</style>
<g id="edges">
	<path class="st0" d="M236.6,374.3c-10.5-21.1,5.3-68.5,26.4-79.1"/>
	<path class="st1" d="M550.8,306.2c6.8-22.8,51.3-46.7,74.1-39.8"/>
	<path class="st2" d="M402.9,215.6c21-12.6,71.4-0.1,84,20.9"/>
	<path class="st3" d="M403.4,84c-5.8,18.7-42.5,38-61.1,32.2"/>
	<path class="st4" d="M369.6,318c16.3-19.1,69.5-23.4,88.6-7.1"/>
	<path class="st5" d="M349.9,208.6c-5.5,14.1-34.8,26.9-48.9,21.4"/>
	<path class="st5" d="M349.9,208.6c12-9.2,43.8-5,53,6.9"/>
	<path class="st6" d="M403.4,84c6.5-17.4,42.3-33.7,59.7-27.3"/>
	<path class="st7" d="M637,457.7c-30.3,3.4-80.9-37-84.3-67.3"/>
	<path class="st8" d="M236.6,374.3c18.6,9.5,32.2,51.6,22.7,70.2"/>
	<path class="st9" d="M342.3,116.2c-21.9,1-56.1-30.3-57.1-52.2"/>
	<path class="st9" d="M342.3,116.2c-13.4,21.5-65.8,33.7-87.3,20.3"/>
	<path class="st10" d="M458.2,311c34.8-3,91.5,44.6,94.5,79.4"/>
	<path class="st11" d="M116.7,473.7c-26.8-4.4-60.4-51.3-55.9-78.1"/>
	<path class="st12" d="M552.7,390.4c-17.2-16.5-18.4-67-1.9-84.2"/>
	<path class="st13" d="M552.7,390.4c-43.9-17.6-83.4-109.9-65.8-153.9"/>
	<path class="st14" d="M177,198.1c4.7,19.4-17.2,55.6-36.6,60.3"/>
	<path class="st15" d="M524,100.3c21.3-12.3,71.6,1.2,83.9,22.5"/>
	<path class="st16" d="M363.5,40.7c10.8,19.3-1.9,64.6-21.2,75.5"/>
	<path class="st17" d="M236.6,374.3c21.5-11.5,70.9,3.6,82.4,25.1"/>
	<path class="st17" d="M236.6,374.3c-20.7,1.3-53.7-27.7-55.1-48.4"/>
	<path class="st18" d="M236.6,374.3c15.3-37.8,95.1-71.6,133-56.2"/>
	<path class="st19" d="M379.3,254.8c10.7,14.6,4.8,52.5-9.8,63.2"/>
	<path class="st17" d="M167.3,397.5c9.2-18.5,50.8-32.4,69.3-23.2"/>
	<path class="st20" d="M301,230.1c-13,6.9-42.8-2.2-49.7-15.2"/>
	<path class="st21" d="M552.7,390.4c6.2-36.1,69.6-81,105.7-74.8"/>
	<path class="st21" d="M552.7,390.4c-1.8,26.5-44.2,63.7-70.7,61.9"/>
	<path class="st20" d="M402.9,215.6c-1.4-24,32.4-62.1,56.3-63.5"/>
	<path class="st21" d="M576.7,495.9c-25.9-16.3-40.3-79.6-24-105.5"/>
	<path class="st15" d="M607.9,122.8c20.4,6.7,41,47.3,34.4,67.7"/>
	<path class="st21" d="M676.9,388.1c-24.4,25.3-98.9,26.7-124.2,2.3"/>
	<path class="st22" d="M380.4,483.1c-18.8,27.9-88.7,41.5-116.5,22.8"/>
	<path class="st20" d="M515.9,175.6c6.4,18-11,54.5-29,60.9"/>
	<path class="st19" d="M402.5,390.1c-21-7.8-40.7-51-32.9-72"/>
	<path class="st23" d="M177,198.1c-20.2-2.2-47.1-35.8-44.8-56"/>
</g>
<g id="nodes">
	<circle class="st24" cx="236.6" cy="374.3" r="13.8"/>
	<circle class="st24" cx="263" cy="295.2" r="13.8"/>
	<circle class="st25" cx="550.8" cy="306.2" r="13.8"/>
	
		<ellipse transform="matrix(0.1572 -0.9876 0.9876 0.1572 263.5889 841.5891)" class="st25" cx="624.8" cy="266.4" rx="13.7" ry="13.8"/>
	<circle class="st26" cx="402.9" cy="215.6" r="13.8"/>
	<circle class="st26" cx="486.9" cy="236.5" r="21.2"/>
	<circle class="st27" cx="403.4" cy="84" r="10"/>
	<circle class="st27" cx="342.3" cy="116.2" r="17.5"/>
	<circle class="st28" cx="369.6" cy="318" r="21.2"/>
	<circle class="st28" cx="458.2" cy="311" r="13.8"/>
	<circle class="st26" cx="349.9" cy="208.6" r="10"/>
	<circle class="st26" cx="301" cy="230.1" r="13.8"/>
	<circle class="st27" cx="463.1" cy="56.8" r="13.8"/>
	<circle class="st25" cx="637" cy="457.7" r="10"/>
	<circle class="st25" cx="552.7" cy="390.4" r="25"/>
	<circle class="st24" cx="259.3" cy="444.5" r="13.7"/>
	<circle class="st27" cx="285.2" cy="64" r="13.8"/>
	<circle class="st27" cx="255" cy="136.4" r="13.8"/>
	<circle class="st29" cx="116.7" cy="473.7" r="10"/>
	<circle class="st29" cx="60.7" cy="395.6" r="13.8"/>
	<circle class="st30" cx="177" cy="198.1" r="10"/>
	<circle class="st30" cx="140.4" cy="258.5" r="13.8"/>
	<circle class="st31" cx="524" cy="100.3" r="10"/>
	<circle class="st31" cx="607.9" cy="122.8" r="13.8"/>
	<circle class="st27" cx="363.5" cy="40.7" r="10"/>
	<circle class="st24" cx="319" cy="399.4" r="13.8"/>
	<circle class="st24" cx="181.5" cy="325.9" r="13.8"/>
	<circle class="st28" cx="379.3" cy="254.8" r="10"/>
	<circle class="st24" cx="167.3" cy="397.5" r="10"/>
	<circle class="st26" cx="251.3" cy="214.9" r="13.8"/>
	<circle class="st25" cx="658.4" cy="315.6" r="13.8"/>
	<circle class="st25" cx="482" cy="452.3" r="13.8"/>
	<circle class="st26" cx="459.2" cy="152" r="13.8"/>
	<circle class="st25" cx="576.7" cy="495.9" r="10"/>
	<circle class="st31" cx="642.3" cy="190.5" r="13.8"/>
	<circle class="st25" cx="676.9" cy="388.1" r="10"/>
	<circle class="st32" cx="380.4" cy="483.1" r="10"/>
	<circle class="st32" cx="263.9" cy="505.8" r="13.7"/>
	<circle class="st26" cx="515.9" cy="175.6" r="10"/>
	<circle class="st28" cx="402.5" cy="390.1" r="10"/>
	<circle class="st30" cx="132.2" cy="142.1" r="13.7"/>
</g>
<g id="node-labels">
	<text transform="matrix(1 0 0 1 210.0121 408.281)" class="st33 st34">bus</text>
	<text transform="matrix(1 0 0 1 210.7122 329.2189)" class="st33 st34">service</text>
	<text transform="matrix(1 0 0 1 515.9233 340.0599)" class="st33 st34">town</text>
	<text transform="matrix(1 0 0 1 590.9104 301.9143)" class="st33 st34">police</text>
	<text transform="matrix(1 0 0 1 378.1453 249.5806)" class="st33 st34">live</text>
	<text transform="matrix(1 0 0 1 449.3945 288.4357)" class="st33 st35">with</text>
	<text transform="matrix(1 0 0 1 374.0868 115.2725)" class="st33 st36">same</text>
	<text transform="matrix(1 0 0 1 299.9398 153.8489)" class="st33 st37">camp</text>
	<text transform="matrix(1 0 0 1 296.4377 365.3107)" class="st33 st38">station</text>
	<text transform="matrix(1 0 0 1 425.6629 344.9863)" class="st33 st34">close</text>
	<text transform="matrix(1 0 0 1 333.2417 240.9128)" class="st33 st36">not</text>
	<text transform="matrix(1 0 0 1 278.1031 263.9412)" class="st33 st34">eat</text>
	<text transform="matrix(1 0 0 1 445.7182 90.7824)" class="st33 st34">px</text>
	<text transform="matrix(1 0 0 1 616.3821 490.0406)" class="st33 st36">visit</text>
	<text transform="matrix(1 0 0 1 497.6589 440.2986)" class="st33 st39">home</text>
	<text transform="matrix(1 0 0 1 194.1745 479.876)" class="st33 st34">transport</text>
	<text transform="matrix(1 0 0 1 237.5231 99.5573)" class="st33 st34">pickett</text>
	<text transform="matrix(1 0 0 1 209.1143 170.4506)" class="st33 st34">rucker</text>
	<text transform="matrix(1 0 0 1 85.9622 507.2287)" class="st33 st36">guard</text>
	<text transform="matrix(1 0 0 1 15.7876 429.5584)" class="st33 st34">house</text>
	<text transform="matrix(1 0 0 1 153.6523 230.4845)" class="st33 st36">train</text>
	<text transform="matrix(1 0 0 1 82.605 292.3286)" class="st33 st34">connect</text>
	<text transform="matrix(1 0 0 1 497.3642 132.7456)" class="st33 st36">army</text>
	<text transform="matrix(1 0 0 1 576.7606 158.2141)" class="st33 st34">post</text>
	<text transform="matrix(1 0 0 1 343.4796 69.1027)" class="st33 st36">bad</text>
	<text transform="matrix(1 0 0 1 293.3083 433.3618)" class="st33 st34">line</text>
	<text transform="matrix(1 0 0 1 132.92 359.8718)" class="st33 st34">situate</text>
	<text transform="matrix(1 0 0 1 337.9573 288.3953)" class="st33 st36">bussing</text>
	<text transform="matrix(1 0 0 1 117.9703 429.7591)" class="st33 st36">comment</text>
	<text transform="matrix(1 0 0 1 224.7208 248.9589)" class="st33 st34">half</text>
	<text transform="matrix(1 0 0 1 625.4258 349.6674)" class="st33 st34">front</text>
	<text transform="matrix(1 0 0 1 442.5151 486.331)" class="st33 st34">leave</text>
	<text transform="matrix(1 0 0 1 398.7012 187.6842)" class="st33 st34">together</text>
	<text transform="matrix(1 0 0 1 552.7191 527.1161)" class="st33 st36">near</text>
	<text transform="matrix(1 0 0 1 572.8632 221.545)" class="st33 st40">command</text>
	<text transform="matrix(1 0 0 1 640.2578 420.4592)" class="st33 st36">remain</text>
	<text transform="matrix(1 0 0 1 333.6806 516.481)" class="st33 st36">separate</text>
	<text transform="matrix(1 0 0 1 198.7565 539.8472)" class="st33 st34">messhall</text>
	<text transform="matrix(1 0 0 1 487.2043 209.1243)" class="st33 st36">sleep</text>
	<text transform="matrix(1 0 0 1 367.1422 422.4415)" class="st33 st36">soldier</text>
	<text transform="matrix(1 0 0 1 91.8086 176.1038)" class="st33 st34">travel</text>
</g>
</svg>
